# AST/ASF file generated using VICON BodyLanguage
# -----------------------------------------------
:version 1.10
:name VICON
:units
  mass 1.0
  length 0.45
  angle deg
:documentation
   .ast/.asf automatically generated from VICON data using
   VICON BodyBuilder and BodyLanguage model FoxedUp or BRILLIANT.MOD
:root
   order TX TY TZ RX RY RZ
   axis XYZ
   position 0 0 0  
   orientation 0 0 0 
:bonedata
  begin
     id 1 
     name lhipjoint
     direction 0.62366 -0.717238 0.310833 
     length 2.53602 
     axis 0 0 0  XYZ
  end
  begin
     id 2 
     name lfemur
     direction 0.34202 -0.939693 0  
     length 7.40817  
     axis 0 0 20  XYZ
    dof rx ry rz
    limits (-160.0 20.0)
           (-70.0 70.0)
           (-60.0 70.0)
  end
  begin
     id 3 
     name ltibia
     direction 0.34202 -0.939693 0   
     length 7.7045   
     axis 0 0 20   XYZ
    dof rx
    limits (-10.0 170.0)
  end
  begin
     id 4 
     name lfoot
     direction 0.0673888 -0.185149 0.980397   
     length 2.09456   
     axis -90 7.62852e-016 20   XYZ
    dof rx rz
    limits (-45.0 90.0)
           (-70.0 20.0)
  end
  begin
     id 5 
     name ltoes
     direction 1.53575e-011 -4.21994e-011 1   
     length 1.05543   
     axis -90 7.62852e-016 20   XYZ
    dof rx
    limits (-90.0 20.0)
  end
  begin
     id 6 
     name rhipjoint
     direction -0.489018 -0.800347 0.346851   
     length 2.27268  
     axis 0 0 0  XYZ 
  end
  begin
     id 7 
     name rfemur
     direction -0.34202 -0.939693 0   
     length 7.55487   
     axis 0 0 -20   XYZ
    dof rx ry rz
    limits (-160.0 20.0)
           (-70.0 70.0)
           (-70.0 60.0)
  end
  begin
     id 8 
     name rtibia
     direction -0.34202 -0.939693 0   
     length 7.78969   
     axis 0 0 -20   XYZ
    dof rx
    limits (-10.0 170.0)
 end
 begin
     id 9 
     name rfoot
     direction -0.0859318 -0.236096 0.967923   
     length 2.19143  
     axis -90 -7.62852e-016 -20   XYZ
    dof rx rz
    limits (-45.0 90.0)
           (-20.0 70.0)
  end
  begin
     id 10 
     name rtoes
     direction -1.53538e-011 -4.21989e-011 1   
     length 1.09845   
     axis -90 -7.62852e-016 -20   XYZ
    dof rx
    limits (-90.0 20.0)
  end
  begin
     id 11 
     name lowerback
     direction -0.00762546 0.998978 -0.0445553   
     length 1.98161   
     axis 0 0 0   XYZ
    dof rx ry rz
    limits (-20.0 45.0)
           (-30.0 30.0)
           (-30.0 30.0)
  end
  begin
     id 12 
     name upperback
     direction 0.0422361 0.998867 -0.0219156   
     length 1.97558   
     axis 0 0 0   XYZ
    dof rx ry rz
    limits (-20.0 45.0)
           (-30.0 30.0)
           (-30.0 30.0)
  end
  begin
     id 13 
     name thorax
     direction 0.0442465 0.999021 7.47603e-005   
     length 1.97799   
     axis 0 0 0   XYZ
    dof rx ry rz
    limits (-20.0 45.0)
           (-30.0 30.0)
           (-30.0 30.0)
  end
  begin
     id 14 
     name lowerneck
     direction 0.00312169 0.984641 0.174564   
     length 1.78995   
     axis 0 0 0   XYZ
    dof rx ry rz
    limits (-20.0 45.0)
           (-30.0 30.0)
           (-30.0 30.0)
  end
  begin
     id 15 
     name upperneck
     direction -0.0383028 0.985255 -0.166749   
     length 1.83053   
     axis 0 0 0   XYZ
    dof rx ry rz
    limits (-20.0 45.0)
           (-30.0 30.0)
           (-30.0 30.0)
  end
  begin
     id 16
     name head
     direction -0.0129546 0.997059 -0.0755386  
     length 1.84088  
     axis 0 0 0   XYZ
    dof rx ry rz
    limits (-20.0 45.0)
           (-30.0 30.0)
           (-30.0 30.0)
  end
  begin
     id 17 
     name lclavicle
     direction 0.912857 0.370519 -0.171488  
     length 3.51279  
     axis 0 0 0   XYZ
    dof ry rz
    limits (-20.0 10.0)
           (0.0 20.0)
  end
  begin
     id 18 
     name lhumerus
     direction 1 -4.48962e-011 3.64361e-027   
     length 4.95663   
     axis 180 -30 -90   XYZ
    dof rx ry rz
    limits (-60.0 90.0)
           (-90.0 90.0)
           (-90.0 90.0)
  end
  begin
     id 19
     name lradius
     direction 1 -4.48974e-011 5.97202e-027   
     length 3.38177   
     axis 180 -30 -90   XYZ
    dof rx
    limits (-10.0 170.0)
  end
  begin
     id 20
     name lwrist
     direction 1 -4.4896e-011 9.83288e-027   
     length 1.69088   
     axis -9.31221e-015 90 90   XYZ
    dof ry
    limits (-180.0 0.0)
 end
  begin
     id 21 
     name lhand
     direction 1 -4.4902e-011 1.96551e-026   
     length 0.662909   
     axis -1.25475e-014 90 90   XYZ
    dof rx rz
    limits (-90.0 90.0)
           (-45.0 45.0)
  end
  begin
     id 22 
     name lfingers
     direction 1 -4.48971e-011 3.93277e-026   
     length 0.534454   
     axis -2.50945e-014 90 90   XYZ
    dof rx
    limits (0.0 90.0)
  end
  begin
     id 23
     name lthumb
     direction 0.707107 -6.34933e-011 0.707107   
     length 0.767373   
     axis -90 45 -4.80359e-014   XYZ
    dof rx rz
    limits (-45.0 45.0)
           (-45.0 45.0)
  end
  begin
     id 24 
     name rclavicle
     direction -0.900919 0.395364 -0.178976   
     length 3.40627  
     axis 0 0 0   XYZ 
    dof ry rz
    limits (-10.0 20.0)
           (-20.0 0.0)
  end
  begin
     id 25 
     name rhumerus
     direction -1 -4.48969e-011 1.03875e-027  
     length 5.08365   
     axis 180 30 90   XYZ
    dof rx ry rz
    limits (-90.0 60.0)
           (-90.0 90.0)
           (-90.0 90.0)
  end
  begin
     id 26 
     name rradius
     direction -1 -4.48951e-011 5.02733e-027   
     length 3.35984   
     axis 180 30 90   XYZ
    dof rx
    limits (-10.0 170.0)
  end
  begin
     id 27 
     name rwrist
     direction -1 -4.49011e-011 9.82828e-027   
     length 1.67992   
     axis -9.31221e-015 -90 -90   XYZ
    dof ry
    limits (-180.0 0.0)
  end
  begin
     id 28
     name rhand
     direction -1 -4.48894e-011 1.96774e-026   
     length 0.820764   
     axis -1.25475e-014 -90 -90   XYZ
    dof rx rz
    limits (-90.0 90.0)
           (-45.0 45.0)
  end
  begin
     id 29
     name rfingers
     direction -1 -4.49095e-011 3.92833e-026   
     length 0.661721   
     axis -2.50945e-014 -90 -90   XYZ
    dof rx
    limits (0.0 90.0)
  end
  begin
     id 30
     name rthumb
     direction -0.707107 -6.34881e-011 0.707107   
     length 0.950103   
     axis -90 -45 4.80359e-014   XYZ
    dof rx rz
    limits (-45.0 45.0)
           (-45.0 45.0)
  end
:hierarchy
  begin
    root lhipjoint rhipjoint lowerback
    lhipjoint lfemur
    lfemur ltibia
    ltibia lfoot
    lfoot ltoes
    rhipjoint rfemur
    rfemur rtibia
    rtibia rfoot
    rfoot rtoes
    lowerback upperback
    upperback thorax
    thorax lowerneck lclavicle rclavicle
    lowerneck upperneck
    upperneck head
    lclavicle lhumerus
    lhumerus lradius
    lradius lwrist
    lwrist lhand lthumb
    lhand lfingers
    rclavicle rhumerus
    rhumerus rradius
    rradius rwrist
    rwrist rhand rthumb
    rhand rfingers
  end

#!OML:ASF I:\golf\golf\golf 2\Subject 1\2002-09-07\Subject1.ASF
:FULLY-SPECIFIED
:DEGREES
31
root -6.26049 17.8429 0.279852 -90.3079 85.528 -106.399
lowerback 0.707984 1.5176 -1.00796
upperback 3.58791 2.04053 4.42986
thorax 3.10606 0.969815 5.19575
lowerneck -17.3359 -1.352 1.59152
upperneck 40.7468 0.784304 -3.40178
head 18.1729 0.656291 -1.53879
rclavicle 4.53229e-014 4.85035e-014
rhumerus -4.18268 5.66115 -102.073
rradius 20.057
rwrist -35.443
rhand -18.904 -12.0178
rfingers 7.12502
rthumb 7.39782 -41.8685
lclavicle 4.53229e-014 4.85035e-014
lhumerus -7.76157 -39.9502 110.095
lradius 22.0555
lwrist 40.922
lhand -11.8802 72.0681
lfingers 7.12502
lthumb -165.828 78.4354
rfemur -28.497 -1.70082 13.5897
rtibia 27.4589
rfoot -8.97514 -10.2012
rtoes -4.93941
lfemur -27.729 6.44351 -6.96175
ltibia 27.3411
lfoot -11.45 -0.925834
ltoes -20.7884
32
root -6.26171 17.8422 0.272889 -90.2983 85.4903 -106.437
lowerback 0.695689 1.53264 -0.934391
upperback 3.54425 2.06021 4.42831
thorax 3.06807 0.982755 5.15159
lowerneck -17.2916 -1.37283 1.66598
upperneck 40.7369 0.750786 -3.46111
head 18.1536 0.647425 -1.58593
rclavicle 4.77083e-015 -2.38542e-014
rhumerus -4.21223 5.3377 -102.075
rradius 20.0409
rwrist -35.2226
rhand -18.5919 -12.0194
rfingers 7.12502
rthumb 7.69909 -41.8592
lclavicle 4.77083e-015 -2.38542e-014
lhumerus -7.82309 -40.0079 110.136
lradius 22.0277
lwrist 40.8415
lhand -11.884 72.0428
lfingers 7.12502
lthumb -165.831 78.4604
rfemur -28.5566 -1.77624 13.6242
rtibia 27.4609
rfoot -9.0236 -10.1882
rtoes -5.03836
lfemur -27.8407 6.47077 -6.94991
ltibia 27.4346
lfoot -11.4692 -0.973683
ltoes -20.9336
33
root -6.2636 17.8411 0.266231 -90.0674 85.482 -106.254
lowerback 0.700246 1.54798 -0.919037
upperback 3.4954 2.08123 4.45147
thorax 3.0125 0.994875 5.16575
lowerneck -17.2587 -1.41182 1.64631
upperneck 40.7516 0.714828 -3.48851
head 18.1519 0.6281 -1.60197
rclavicle 7.95139e-015 -2.62396e-014
rhumerus -4.26564 5.15536 -102.043
rradius 20.0505
rwrist -35.245
rhand -18.387 -11.8871
rfingers 7.12502
rthumb 7.89686 -41.7196
lclavicle 7.95139e-015 -2.62396e-014
lhumerus -7.88056 -40.1109 110.206
lradius 22.0198
lwrist 40.7769
lhand -11.7618 71.9616
lfingers 7.12502
lthumb -165.713 78.5499
rfemur -28.6374 -1.87541 13.6496
rtibia 27.4961
rfoot -9.0453 -10.0943
rtoes -4.93734
lfemur -27.9377 6.58606 -6.98982
ltibia 27.4794
lfoot -11.4479 -1.09517
ltoes -20.7979
34
root -6.26507 17.8386 0.262152 -90.1632 85.5529 -106.347
lowerback 0.739247 1.54632 -1.05482
upperback 3.47578 2.08101 4.4925
thorax 2.96454 0.991666 5.2841
lowerneck -17.3062 -1.44672 1.50279
upperneck 40.8334 0.694929 -3.41579
head 18.2124 0.610487 -1.54746
rclavicle -4.37326e-015 2.06736e-014
rhumerus -4.34474 5.18698 -101.953
rradius 20.137
rwrist -35.385
rhand -18.2253 -11.8222
rfingers 7.12502
rthumb 8.05288 -41.6488
lclavicle -4.37326e-015 2.06736e-014
lhumerus -7.90022 -40.2784 110.255
lradius 22.0669
lwrist 40.9031
lhand -11.5982 71.8162
lfingers 7.12502
lthumb -165.556 78.7064
rfemur -28.6619 -1.91317 13.5593
rtibia 27.5449
rfoot -9.17929 -9.97757
rtoes -3.70498
lfemur -27.9639 6.68368 -7.11193
ltibia 27.485
lfoot -11.4255 -1.18993
ltoes -20.7539
35
root -6.26562 17.8341 0.257987 -90.4693 85.605 -106.62
lowerback 0.759215 1.54926 -1.10703
upperback 3.49555 2.08537 4.48188
thorax 2.97206 0.992132 5.30258
lowerneck -17.4064 -1.46336 1.43442
upperneck 40.9213 0.647636 -3.28929
head 18.2892 0.599981 -1.48743
rclavicle 8.34896e-015 2.8625e-014
rhumerus -4.37483 5.18988 -101.919
rradius 20.2444
rwrist -35.542
rhand -18.2445 -11.8474
rfingers 7.12502
rthumb 8.03433 -41.6747
lclavicle 8.34896e-015 2.8625e-014
lhumerus -7.90222 -40.6485 110.212
lradius 22.1713
lwrist 41.2668
lhand -11.5575 71.8137
lfingers 7.12502
lthumb -165.517 78.7117
rfemur -28.6351 -1.93511 13.4714
rtibia 27.5662
rfoot -9.31216 -9.86605
rtoes -2.45743
lfemur -27.9655 6.7417 -7.2153
ltibia 27.4784
lfoot -11.4243 -1.19613
ltoes -21.6163
36
root -6.26508 17.8328 0.253264 -89.819 85.5936 -105.942
lowerback 0.758274 1.58212 -1.04775
upperback 3.51237 2.12863 4.45369
thorax 2.98857 1.01524 5.24024
lowerneck -17.4448 -1.46781 1.48224
upperneck 40.9652 0.610605 -3.2519
head 18.3236 0.599198 -1.48687
rclavicle -2.3059e-014 2.38542e-014
rhumerus -4.33768 4.83364 -101.963
rradius 20.2218
rwrist -35.3549
rhand -18.3296 -11.84
rfingers 7.12502
rthumb 7.95227 -41.6705
lclavicle -2.3059e-014 2.38542e-014
lhumerus -7.88086 -40.8175 110.154
lradius 22.1777
lwrist 41.5399
lhand -11.4976 71.6531
lfingers 7.12502
lthumb -165.459 78.8766
rfemur -28.6177 -1.95119 13.4904
rtibia 27.5678
rfoot -9.28333 -9.80565
rtoes -2.47076
lfemur -27.9373 6.80094 -7.22364
ltibia 27.4597
lfoot -11.3665 -1.21978
ltoes -21.7345
37
root -6.26449 17.8353 0.247439 -89.2596 85.5702 -105.357
lowerback 0.785419 1.59108 -1.04041
upperback 3.50497 2.14139 4.49044
thorax 2.96336 1.02235 5.27361
lowerneck -17.4203 -1.47167 1.50606
upperneck 41.002 0.633168 -3.31852
head 18.3404 0.605126 -1.51823
rclavicle 1.03368e-014 -3.18055e-014
rhumerus -4.35651 4.63983 -101.952
rradius 20.18
rwrist -35.1494
rhand -18.3498 -11.8289
rfingers 7.12502
rthumb 7.93273 -41.66
lclavicle 1.03368e-014 -3.18055e-014
lhumerus -7.82468 -40.5046 110.163
lradius 22.0594
lwrist 41.531
lhand -11.4238 71.2018
lfingers 7.12502
lthumb -165.388 79.333
rfemur -28.5779 -1.89028 13.4969
rtibia 27.5502
rfoot -9.21542 -9.87863
rtoes -2.95385
lfemur -27.8929 6.7885 -7.19848
ltibia 27.4508
lfoot -11.302 -1.22361
ltoes -21.1369
38
root -6.26373 17.8359 0.241012 -89.1665 85.5572 -105.224
lowerback 0.843721 1.5841 -1.07932
upperback 3.49126 2.13396 4.55279
thorax 2.9137 1.0185 5.3587
lowerneck -17.3906 -1.47468 1.52185
upperneck 41.0268 0.669232 -3.40994
head 18.3494 0.611373 -1.55696
rclavicle -1.82882e-014 -9.54166e-015
rhumerus -4.45368 4.80946 -101.871
rradius 20.2587
rwrist -35.3437
rhand -18.3743 -11.8631
rfingers 7.12502
rthumb 7.9091 -41.6952
lclavicle -1.82882e-014 -9.54166e-015
lhumerus -7.82246 -40.2507 110.24
lradius 21.9904
lwrist 41.3804
lhand -11.5164 70.9988
lfingers 7.12502
lthumb -165.477 79.5295
rfemur -28.5002 -1.77826 13.4612
rtibia 27.5021
rfoot -10.1757 -9.61426
rtoes 14.4946
lfemur -27.8697 6.87599 -7.23043
ltibia 27.4726
lfoot -11.3352 -1.25181
ltoes -21.5628
